<svg width="633" height="424" viewBox="0 0 633 424" fill="none" xmlns="http://www.w3.org/2000/svg">
<path d="M628.085 321.549H561.528C566.386 301.677 568.97 280.933 568.97 259.572C568.97 217.13 558.776 177.048 540.718 141.661H587.926C590.65 141.661 592.841 139.469 592.841 136.742C592.841 134.016 590.65 131.824 587.926 131.824H535.438C490.898 53.123 406.451 0 309.62 0C245.224 0 186.305 23.4978 140.951 62.3984H61.0814C58.3573 62.3984 56.1668 64.5908 56.1668 67.3172C56.1668 70.0436 58.3573 72.236 61.0814 72.236H130.11C124.606 77.5202 119.326 83.0573 114.299 88.8194H4.9146C2.19051 88.8194 0 91.0117 0 93.7382C0 96.4646 2.19051 98.6569 4.9146 98.6569H106.099C71.1353 142.898 50.2693 198.804 50.2693 259.572C50.2693 293.582 56.8127 326.074 68.692 355.84H55.7456C53.0215 355.84 50.831 358.032 50.831 360.758C50.831 363.485 53.0215 365.677 55.7456 365.677H72.8484C74.6457 369.668 76.5273 373.603 78.4931 377.482H20.3605C17.6364 377.482 15.4459 379.675 15.4459 382.401C15.4459 385.127 17.6364 387.32 20.3605 387.32H83.8009C89.8669 398.029 96.6631 408.26 104.133 417.957H515.106C529.063 399.856 540.69 379.815 549.508 358.369H597.755C600.479 358.369 602.67 356.177 602.67 353.45C602.67 350.724 600.479 348.532 597.755 348.532H553.327C555.377 342.91 557.231 337.176 558.916 331.386H628.085C630.81 331.386 633 329.194 633 326.467C633 323.741 630.81 321.549 628.085 321.549Z" fill="#F9F8F8"/>
<path d="M418.613 417.928H387.188C387.188 415.651 389.013 413.824 391.288 413.824H414.485C416.787 413.824 418.613 415.679 418.613 417.928Z" fill="#F2F2F2"/>
<path d="M411.169 413.824H394.656L400.02 260.555L403.643 262.944L411.169 413.824Z" fill="#F2F2F2"/>
<path d="M416.281 417.928H384.855C384.855 415.651 386.681 413.824 388.956 413.824H412.153C414.455 413.824 416.281 415.679 416.281 417.928Z" fill="#F2F2F2"/>
<path d="M400.582 261.904L479.637 307.578L478.766 303.081C478.598 302.182 478.12 301.395 477.39 300.86L425.745 260.836C424.79 260.105 423.554 259.88 422.403 260.217L412.04 263.309C411.057 263.59 410.018 263.478 409.119 262.972L402.239 258.98L400.582 261.904Z" fill="#F2F2F2"/>
<path d="M398.899 259.012L319.844 304.686L324.169 306.176C325.039 306.485 325.966 306.457 326.808 306.092L387.244 281.329C388.367 280.879 389.182 279.896 389.463 278.743L391.962 268.231C392.187 267.219 392.833 266.376 393.731 265.87L400.612 261.907L398.899 259.012Z" fill="#F2F2F2"/>
<path d="M402.24 259.01V167.633L398.786 170.64C398.112 171.231 397.662 172.046 397.522 172.945L388.732 237.705C388.563 238.885 388.985 240.094 389.855 240.909L397.719 248.329C398.449 249.032 398.87 250.016 398.87 251.027V258.982H402.24V259.01Z" fill="#F2F2F2"/>
<path d="M408.165 413.824H393L398.364 260.555H402.801L408.165 413.824Z" fill="#F2F2F2"/>
<path d="M404.364 261.469C404.855 259.384 403.566 257.295 401.483 256.803C399.399 256.31 397.312 257.601 396.82 259.686C396.328 261.771 397.618 263.86 399.701 264.352C401.784 264.845 403.872 263.554 404.364 261.469Z" fill="#F2F2F2"/>
<path d="M400.304 263.872C402.258 263.872 403.843 262.287 403.843 260.331C403.843 258.375 402.258 256.789 400.304 256.789C398.35 256.789 396.766 258.375 396.766 260.331C396.766 262.287 398.35 263.872 400.304 263.872Z" fill="#F2F2F2"/>
<path d="M321.248 305.161L396.764 260.33L396.708 260.273L319.844 304.683L321.248 305.161Z" fill="#F2F2F2"/>
<path d="M408.164 412.84H393.027V413.824H408.164V412.84Z" fill="#F2F2F2"/>
<path d="M401.145 168.617L402.184 257.099L402.24 257.071V167.633L401.145 168.617Z" fill="#F2F2F2"/>
<path d="M479.357 306.118L402.773 263.086V263.17L479.638 307.58L479.357 306.118Z" fill="#F2F2F2"/>
<path d="M521.848 417.929H471.551C471.551 414.303 474.5 411.352 478.122 411.352H515.277C518.899 411.352 521.848 414.303 521.848 417.929Z" fill="#ECECEC"/>
<path d="M509.94 411.354H483.457L492.051 165.977L497.836 169.799L509.94 411.354Z" fill="#ECECEC"/>
<path d="M518.114 417.929H467.816C467.816 414.303 470.765 411.352 474.388 411.352H511.542C515.165 411.352 518.114 414.303 518.114 417.929Z" fill="#F2F2F2"/>
<path d="M492.949 168.138L619.521 241.274L617.977 233.235C617.808 232.336 617.331 231.549 616.6 230.987L532.35 165.721C531.395 164.99 530.16 164.766 529.008 165.103L510.417 170.668C509.434 170.949 508.395 170.837 507.496 170.331L495.645 163.473L492.949 168.138Z" fill="#F2F2F2"/>
<path d="M490.283 163.473L363.711 236.608L371.434 239.278C372.276 239.587 373.231 239.559 374.046 239.194L474.416 198.073L479.723 175.756L492.951 168.11L490.283 163.473Z" fill="#F2F2F2"/>
<path d="M495.646 163.474V17.2031L489.467 22.5435C488.793 23.1338 488.344 23.9489 488.204 24.8483L473.853 130.504C473.684 131.685 474.106 132.893 474.976 133.708L489.074 147.059C489.804 147.762 490.254 148.746 490.254 149.758V163.446H495.646V163.474Z" fill="#F2F2F2"/>
<path d="M505.112 411.354H480.82L489.414 165.977H496.491L505.112 411.354Z" fill="#F2F2F2"/>
<path d="M498.738 168.351C500.056 165.167 498.545 161.517 495.364 160.198C492.183 158.879 488.536 160.391 487.218 163.575C485.9 166.759 487.411 170.409 490.592 171.728C493.773 173.047 497.42 171.535 498.738 168.351Z" fill="#ECECEC"/>
<path d="M497.77 167.756C498.969 164.859 497.595 161.538 494.7 160.338C491.806 159.138 488.487 160.514 487.288 163.411C486.089 166.308 487.464 169.629 490.358 170.829C493.253 172.029 496.571 170.653 497.77 167.756Z" fill="#F2F2F2"/>
<path d="M365.958 237.398L486.857 165.584L486.744 165.527L363.711 236.611L365.958 237.398Z" fill="#ECECEC"/>
<path d="M505.111 409.777H480.875V411.379H505.111V409.777Z" fill="#ECECEC"/>
<path d="M493.848 18.749L495.505 160.466L495.645 160.41V17.2031L493.848 18.749Z" fill="#ECECEC"/>
<path d="M619.073 238.943L496.489 170.023L496.461 170.164L619.522 241.276L619.073 238.943Z" fill="#ECECEC"/>
<path d="M118.959 299.121C102.755 299.121 89.5 285.854 89.5 269.636V201.813C89.5 185.595 102.755 172.328 118.959 172.328C135.164 172.328 148.419 185.595 148.419 201.813V269.664C148.419 285.854 135.164 299.121 118.959 299.121Z" fill="#F2F2F2"/>
<path d="M120.588 418.1H117.387V219.493C117.387 218.593 118.117 217.891 118.987 217.891C119.886 217.891 120.588 218.621 120.588 219.493V418.1Z" fill="#E4E4E4"/>
<path d="M120.59 246.391L111.66 230.903C111.21 230.145 110.227 229.864 109.469 230.313C108.711 230.763 108.43 231.747 108.879 232.506L117.81 247.993L120.59 246.391Z" fill="#E4E4E4"/>
<path d="M120.14 264.915L129.07 249.428C129.519 248.669 129.239 247.685 128.48 247.235C127.722 246.785 126.739 247.066 126.29 247.825L117.359 263.313L120.14 264.915Z" fill="#E4E4E4"/>
<path d="M194.165 266.851C173.608 266.851 156.758 250.015 156.758 229.412V143.263C156.758 122.689 173.58 105.824 194.165 105.824C214.722 105.824 231.572 122.661 231.572 143.263V229.412C231.572 250.015 214.722 266.851 194.165 266.851Z" fill="#F2F2F2"/>
<path d="M196.217 417.9H192.145V165.692C192.145 164.568 193.071 163.641 194.195 163.641C195.318 163.641 196.245 164.568 196.245 165.692V417.9H196.217Z" fill="#E4E4E4"/>
<path d="M196.214 199.901L184.869 180.226C184.307 179.242 183.071 178.905 182.088 179.467C181.105 180.029 180.768 181.266 181.33 182.25L192.676 201.925L196.214 199.901Z" fill="#E4E4E4"/>
<path d="M195.652 223.398L206.997 203.722C207.559 202.739 207.222 201.502 206.239 200.94C205.256 200.378 204.021 200.715 203.459 201.699L192.113 221.374L195.652 223.398Z" fill="#E4E4E4"/>
<path d="M137.13 406.94C138.843 405.338 139.629 403.483 138.955 402.19C138.113 400.588 135.304 400.335 132.328 401.459C132.468 401.066 132.636 400.672 132.749 400.251C134.35 395.163 133.423 390.329 130.727 389.486C128.087 388.642 124.689 391.903 123.032 396.794C121.656 391.2 118.174 387.265 115.169 387.968C112.332 388.642 110.956 393.196 111.855 398.396C107.726 396.569 103.711 396.709 102.447 398.93C101.127 401.206 103.177 404.917 107.081 407.615C105.227 408.233 103.963 409.386 103.767 410.791C103.542 412.534 105.059 414.276 107.446 415.344C107.305 415.682 107.277 416.019 107.361 416.356C107.614 417.424 108.934 418.071 110.703 418.127H110.956C110.956 418.127 110.956 418.127 110.984 418.127H133.086V418.099C133.507 418.043 133.844 417.874 133.956 417.565C134.041 417.368 133.984 417.143 133.872 416.919C135.024 416.806 135.922 416.356 136.203 415.569C136.428 414.979 136.259 414.276 135.782 413.602C138.815 413.405 141.118 412.084 141.202 410.369C141.258 408.908 139.573 407.559 137.13 406.94Z" fill="#E4E4E4"/>
<path d="M183.636 397.551C186.781 394.571 188.241 391.199 186.978 388.809C185.433 385.858 180.294 385.408 174.789 387.488C175.07 386.758 175.323 386.027 175.576 385.268C178.496 375.908 176.84 367.026 171.841 365.452C166.982 363.934 160.748 369.893 157.715 378.887C155.215 368.6 148.784 361.348 143.252 362.641C138.056 363.878 135.501 372.226 137.186 381.839C129.575 378.466 122.217 378.747 119.886 382.794C117.471 386.982 121.234 393.813 128.424 398.788C125.026 399.94 122.667 402.02 122.358 404.634C121.965 407.866 124.717 411.042 129.098 412.982C128.845 413.6 128.789 414.247 128.929 414.837C129.379 416.776 131.85 417.985 135.051 418.097H135.529H135.557H176.166V418.069C176.952 417.957 177.542 417.619 177.738 417.085C177.879 416.72 177.822 416.327 177.598 415.905C179.732 415.708 181.333 414.865 181.866 413.431C182.288 412.335 181.979 411.07 181.108 409.806C186.669 409.44 190.937 406.995 191.078 403.875C191.246 401.177 188.129 398.675 183.636 397.551Z" fill="#F2F2F2"/>
<path d="M460.201 399.657C457.392 397.015 456.101 394.008 457.224 391.871C458.6 389.229 463.178 388.836 468.092 390.691C467.839 390.045 467.615 389.398 467.39 388.723C464.778 380.376 466.267 372.477 470.732 371.1C475.057 369.751 480.617 375.063 483.313 383.046C485.56 373.883 491.289 367.418 496.204 368.57C500.837 369.667 503.112 377.115 501.624 385.66C508.392 382.652 514.935 382.905 517.042 386.503C519.204 390.241 515.834 396.312 509.431 400.753C512.464 401.765 514.542 403.62 514.851 405.981C515.188 408.848 512.745 411.687 508.841 413.43C509.066 413.992 509.122 414.554 508.982 415.088C508.588 416.831 506.398 417.899 503.533 418.011H503.112H503.084H466.913V417.983C466.211 417.899 465.677 417.59 465.508 417.112C465.396 416.803 465.452 416.437 465.621 416.072C463.711 415.875 462.279 415.144 461.801 413.88C461.436 412.896 461.717 411.772 462.475 410.647C457.533 410.31 453.741 408.146 453.601 405.363C453.433 402.89 456.185 400.669 460.201 399.657Z" fill="#EAEAEA"/>
<path d="M501.988 410.62C500.865 409.551 500.331 408.343 500.78 407.472C501.342 406.403 503.196 406.235 505.161 406.994C505.049 406.741 504.965 406.46 504.881 406.207C503.813 402.834 504.431 399.658 506.229 399.096C507.97 398.533 510.216 400.698 511.312 403.93C512.21 400.22 514.541 397.606 516.507 398.084C518.389 398.533 519.287 401.541 518.698 404.998C521.45 403.789 524.09 403.874 524.932 405.335C525.803 406.853 524.455 409.299 521.871 411.097C523.107 411.519 523.949 412.25 524.062 413.205C524.202 414.358 523.219 415.51 521.646 416.213C521.731 416.438 521.759 416.663 521.703 416.888C521.534 417.59 520.664 418.012 519.484 418.068H519.315H504.712C504.431 418.04 504.207 417.899 504.15 417.731C504.094 417.59 504.122 417.45 504.207 417.309C503.448 417.225 502.859 416.944 502.662 416.41C502.522 416.016 502.634 415.566 502.943 415.117C500.949 414.976 499.404 414.105 499.348 412.981C499.264 411.941 500.387 411.041 501.988 410.62Z" fill="#E4E4E4"/>
<path d="M323.886 400.728C321.247 398.226 320.039 395.387 321.078 393.392C322.37 390.918 326.695 390.525 331.3 392.267C331.076 391.677 330.851 391.031 330.655 390.412C328.183 382.542 329.587 375.094 333.8 373.801C337.9 372.508 343.124 377.539 345.651 385.072C347.757 376.443 353.149 370.344 357.783 371.44C362.136 372.48 364.27 379.507 362.866 387.545C369.269 384.735 375.419 384.96 377.385 388.361C379.407 391.874 376.262 397.608 370.224 401.796C373.089 402.752 375.054 404.522 375.335 406.715C375.672 409.413 373.341 412.083 369.662 413.742C369.859 414.276 369.915 414.781 369.803 415.316C369.41 416.946 367.36 417.958 364.664 418.07H364.27H364.242H330.149V418.042C329.475 417.958 328.998 417.677 328.829 417.227C328.717 416.918 328.773 416.58 328.941 416.243C327.144 416.074 325.796 415.372 325.347 414.163C325.01 413.236 325.262 412.167 325.965 411.128C321.303 410.818 317.708 408.767 317.596 406.153C317.511 403.792 320.123 401.683 323.886 400.728Z" fill="#F2F2F2"/>
<path d="M362.22 408.23C360.732 406.825 360.03 405.194 360.619 404.07C361.349 402.665 363.793 402.44 366.404 403.452C366.264 403.114 366.152 402.749 366.039 402.384C364.635 397.914 365.45 393.726 367.809 392.968C370.111 392.237 373.088 395.076 374.521 399.348C375.7 394.457 378.761 391 381.401 391.618C383.872 392.209 385.08 396.172 384.294 400.753C387.916 399.151 391.399 399.292 392.522 401.203C393.673 403.199 391.876 406.431 388.45 408.792C390.079 409.326 391.174 410.338 391.343 411.575C391.539 413.092 390.219 414.61 388.141 415.538C388.253 415.847 388.281 416.128 388.225 416.437C388.001 417.365 386.849 417.927 385.305 417.983H385.08C385.08 417.983 385.08 417.983 385.052 417.983H365.731V417.955C365.365 417.899 365.085 417.758 364.972 417.505C364.916 417.337 364.944 417.14 365.028 416.943C364.017 416.831 363.259 416.437 363.006 415.763C362.81 415.229 362.95 414.638 363.371 414.048C360.732 413.879 358.71 412.727 358.625 411.209C358.597 409.944 360.086 408.764 362.22 408.23Z" fill="#E4E4E4"/>
<path d="M381.626 175.252C381.374 175.252 381.149 175.28 380.924 175.365C380.924 175.252 380.924 175.14 380.924 175.027C380.924 172.329 378.734 170.137 376.038 170.137C373.791 170.137 371.91 171.626 371.348 173.678C371.067 173.594 370.786 173.566 370.477 173.566C368.736 173.566 367.332 174.971 367.332 176.714C367.332 178.457 368.736 179.862 370.477 179.862C370.534 179.862 370.59 179.862 370.646 179.862H381.57C382.862 179.862 383.873 178.822 383.873 177.557C383.957 176.292 382.918 175.252 381.626 175.252Z" fill="#F2F2F2"/>
<path d="M296.561 121.988C295.241 121.988 294.006 122.353 292.967 122.971C291.871 118.249 287.659 114.736 282.604 114.736C282.155 114.736 281.733 114.764 281.284 114.82C278.925 109.564 273.673 105.91 267.551 105.91C259.238 105.91 252.498 112.656 252.498 120.976C252.498 121.06 252.498 121.144 252.498 121.229C251.487 120.751 250.364 120.498 249.185 120.498C244.888 120.498 241.434 123.983 241.434 128.256C241.434 132.528 244.916 136.013 249.185 136.013H296.561C300.437 136.013 303.582 132.865 303.582 128.986C303.582 125.136 300.437 121.988 296.561 121.988Z" fill="#F2F2F2"/>
<path d="M224.387 289.256C225.258 289.256 226.072 289.509 226.746 289.902C227.476 286.811 230.228 284.478 233.57 284.478C233.851 284.478 234.16 284.506 234.441 284.534C235.985 281.077 239.44 278.688 243.484 278.688C248.96 278.688 253.369 283.128 253.369 288.581C253.369 288.638 253.369 288.694 253.369 288.75C254.043 288.441 254.773 288.272 255.56 288.272C258.368 288.272 260.671 290.549 260.671 293.388C260.671 296.198 258.396 298.503 255.56 298.503H224.387C221.831 298.503 219.781 296.423 219.781 293.894C219.781 291.364 221.831 289.256 224.387 289.256Z" fill="#F2F2F2"/>
<path d="M534.203 390.355L534.118 390.636C534.118 390.664 533.922 391.395 533.444 392.294C532.995 393.137 532.237 394.262 531.029 394.964C529.822 395.667 528.446 395.808 527.519 395.779C526.508 395.751 525.778 395.583 525.75 395.583L525.469 395.498L525.553 395.217C525.553 395.189 525.75 394.458 526.227 393.559C526.676 392.716 527.435 391.591 528.642 390.889C529.85 390.186 531.226 390.046 532.153 390.074C533.164 390.102 533.894 390.27 533.922 390.27L534.203 390.355ZM526.199 395.077C526.957 395.217 529.063 395.442 530.748 394.458C532.433 393.475 533.22 391.507 533.473 390.776C532.714 390.636 530.608 390.411 528.923 391.395C527.266 392.378 526.452 394.346 526.199 395.077Z" fill="#E4E4E4"/>
<path d="M530.215 397.072C527.547 398.084 524.57 396.735 524.57 396.735C524.57 396.735 525.918 393.755 528.586 392.744C531.254 391.732 534.231 393.081 534.231 393.081C534.231 393.081 532.883 396.06 530.215 397.072Z" fill="#F2F2F2"/>
<path d="M524.486 358.23V358.596C524.486 358.624 524.486 359.58 524.177 360.788C523.896 361.913 523.306 363.543 522.071 364.751C520.835 365.96 519.206 366.55 518.083 366.803C516.847 367.084 515.921 367.084 515.892 367.084H515.527V366.719C515.527 366.691 515.527 365.735 515.836 364.527C516.117 363.402 516.707 361.772 517.943 360.563C519.178 359.355 520.807 358.765 521.93 358.512C523.166 358.23 524.093 358.23 524.121 358.23H524.486ZM516.258 366.354C517.212 366.297 519.824 365.932 521.565 364.245C523.306 362.531 523.672 359.917 523.756 358.961C522.801 359.017 520.189 359.383 518.448 361.069C516.707 362.784 516.342 365.398 516.258 366.354Z" fill="#E4E4E4"/>
<path d="M521.678 367.563C518.757 369.586 514.77 368.884 514.77 368.884C514.77 368.884 515.5 364.892 518.42 362.869C521.341 360.845 525.329 361.548 525.329 361.548C525.329 361.548 524.599 365.511 521.678 367.563Z" fill="#F2F2F2"/>
<path d="M153.842 348.785L154.067 348.982C154.095 349.01 154.684 349.516 155.302 350.359C155.864 351.146 156.594 352.383 156.706 353.816C156.819 355.25 156.313 356.599 155.892 357.47C155.415 358.398 154.909 358.988 154.909 359.016L154.712 359.241L154.488 359.044C154.46 359.016 153.87 358.51 153.252 357.667C152.662 356.88 151.96 355.643 151.848 354.21C151.736 352.776 152.241 351.427 152.662 350.556C153.14 349.628 153.645 349.038 153.645 349.01L153.842 348.785ZM154.6 358.398C155.078 357.751 156.257 355.896 156.089 353.873C155.92 351.849 154.46 350.219 153.898 349.656C153.421 350.303 152.241 352.158 152.41 354.182C152.578 356.205 154.038 357.836 154.6 358.398Z" fill="#E4E4E4"/>
<path d="M158.279 355.557C157.998 358.509 155.415 360.673 155.415 360.673C155.415 360.673 153.252 358.059 153.533 355.108C153.814 352.156 156.397 349.992 156.397 349.992C156.397 349.992 158.56 352.606 158.279 355.557Z" fill="#F2F2F2"/>
<path d="M97 382.881L97.2527 382.853C97.2808 382.853 97.9268 382.797 98.7973 382.965C99.6118 383.106 100.763 383.415 101.69 384.23C102.617 385.017 103.094 386.141 103.347 386.9C103.6 387.743 103.656 388.39 103.656 388.418L103.684 388.671L103.431 388.699C103.403 388.699 102.757 388.755 101.887 388.587C101.072 388.446 99.9207 388.137 98.9939 387.322C98.0672 386.535 97.5898 385.411 97.337 384.652C97.0843 383.808 97.0281 383.162 97.0281 383.134L97 382.881ZM103.122 388.193C103.01 387.519 102.645 385.72 101.353 384.595C100.061 383.471 98.2357 383.359 97.5617 383.359C97.674 384.033 98.0391 385.832 99.3309 386.956C100.595 388.053 102.448 388.193 103.122 388.193Z" fill="#E4E4E4"/>
<path d="M103.655 384.342C105.228 386.282 104.947 389.121 104.947 389.121C104.947 389.121 102.111 388.811 100.538 386.872C98.9652 384.933 99.246 382.094 99.246 382.094C99.246 382.094 102.082 382.403 103.655 384.342Z" fill="#F2F2F2"/>
<path d="M449.137 375.204H449.418C449.446 375.204 450.176 375.176 451.159 375.401C452.057 375.598 453.349 376.019 454.332 376.947C455.315 377.874 455.821 379.139 456.045 380.039C456.298 380.994 456.326 381.725 456.326 381.753V382.034H456.045C456.017 382.034 455.287 382.062 454.304 381.838C453.405 381.641 452.114 381.219 451.131 380.292C450.148 379.364 449.642 378.099 449.418 377.2C449.165 376.244 449.137 375.513 449.137 375.485V375.204ZM455.736 381.444C455.652 380.685 455.315 378.633 453.939 377.34C452.563 376.019 450.485 375.795 449.726 375.766C449.811 376.525 450.148 378.577 451.524 379.87C452.928 381.191 454.978 381.416 455.736 381.444Z" fill="#E4E4E4"/>
<path d="M456.523 377.144C458.18 379.392 457.758 382.54 457.758 382.54C457.758 382.54 454.613 382.062 452.928 379.842C451.271 377.593 451.692 374.445 451.692 374.445C451.692 374.445 454.866 374.895 456.523 377.144Z" fill="#F2F2F2"/>
<path d="M370.842 400.7H240.254L242.641 392.099L247.275 375.291L250.083 365.116L254.239 350.106L262.215 321.184L266.371 306.175L295.466 200.688H315.63L326.301 239.335L344.724 306.175L348.881 321.184L356.856 350.106L361.013 365.116L368.455 392.099L370.842 400.7Z" fill="#0B5D99"/>
<path d="M370.842 400.7H240.254L242.641 392.099L247.275 375.291C338.265 369.922 326.273 239.363 326.273 239.363L368.455 392.099L370.842 400.7Z" fill="#0B5D99"/>
<path d="M397.549 400.699H213.547V418.21H397.549V400.699Z" fill="#0B5D99"/>
<path d="M370.842 400.699H240.254L242.641 392.098H368.455L370.842 400.699Z" fill="#232851"/>
<path d="M348.881 321.184C348.881 321.184 346.156 378.944 279.852 392.155L368.455 392.099L348.881 321.184Z" fill="#0B5D99"/>
<path d="M348.88 321.185H262.215L266.371 306.176H344.724L348.88 321.185Z" fill="white"/>
<path d="M361.011 365.115H250.082L254.238 350.105H356.855L361.011 365.115Z" fill="white"/>
<path d="M354.975 400.699C354.975 400.699 330.598 419.138 240.254 418.21H397.521V400.699H354.975Z" fill="#0B5D99"/>
<path d="M424.564 424.003H183.945C182.316 424.003 180.996 422.681 180.996 421.051V420.967C180.996 419.337 182.316 418.016 183.945 418.016H424.564C426.192 418.016 427.512 419.337 427.512 420.967V421.051C427.54 422.653 426.22 424.003 424.564 424.003Z" fill="#242850"/>
<path d="M188.526 424.003H149.546C147.918 424.003 146.598 422.681 146.598 421.051V420.967C146.598 419.337 147.918 418.016 149.546 418.016H188.526C190.155 418.016 191.475 419.337 191.475 420.967V421.051C191.475 422.653 190.155 424.003 188.526 424.003Z" fill="#242850"/>
<path d="M131.683 424.003H90.7378C89.109 424.003 87.7891 422.681 87.7891 421.051V420.967C87.7891 419.337 89.109 418.016 90.7378 418.016H131.683C133.312 418.016 134.632 419.337 134.632 420.967V421.051C134.632 422.653 133.312 424.003 131.683 424.003Z" fill="#242850"/>
<path d="M476.518 424.003H442.902C441.273 424.003 439.953 422.681 439.953 421.051V420.967C439.953 419.337 441.273 418.016 442.902 418.016H476.518C478.147 418.016 479.466 419.337 479.466 420.967V421.051C479.495 422.653 478.147 424.003 476.518 424.003Z" fill="#242850"/>
<path d="M520.469 424.003H494.914C493.285 424.003 491.965 422.681 491.965 421.051V420.967C491.965 419.337 493.285 418.016 494.914 418.016H520.469C522.098 418.016 523.418 419.337 523.418 420.967V421.051C523.418 422.653 522.098 424.003 520.469 424.003Z" fill="#242850"/>
</svg>
