<svg width="10" height="18" viewBox="0 0 10 18" fill="none" xmlns="http://www.w3.org/2000/svg">
<path d="M1.25065 0.666668C1.41483 0.666592 1.57742 0.699629 1.72913 0.763895C1.88084 0.828159 2.01869 0.922392 2.13482 1.04121L8.87816 7.94596C9.1125 8.18595 9.24414 8.5114 9.24414 8.85075C9.24414 9.1901 9.1125 9.51555 8.87816 9.75554L2.13399 16.6603C1.89824 16.8934 1.58248 17.0224 1.25474 17.0195C0.926991 17.0166 0.613476 16.882 0.381716 16.6447C0.149955 16.4074 0.0184937 16.0864 0.015646 15.7509C0.0127974 15.4153 0.138791 15.0921 0.366488 14.8507L6.22649 8.85118L0.366488 2.85165C0.191558 2.67267 0.0724154 2.44458 0.0241365 2.19626C-0.0241423 1.94793 0.000613213 1.69053 0.0952692 1.45661C0.189926 1.22269 0.35023 1.02278 0.555896 0.882162C0.761561 0.741547 1.00335 0.666553 1.25065 0.666668Z" fill="#0B2559"/>
</svg>
