<svg width="25" height="24" viewBox="0 0 25 24" fill="none" xmlns="http://www.w3.org/2000/svg">
<path d="M12.5684 0C19.1308 0 24.4507 5.37258 24.4507 12C24.4507 18.6274 19.1308 24 12.5684 24C6.00594 24 0.686035 18.6274 0.686035 12C0.686035 5.37258 6.00594 0 12.5684 0ZM16.3942 8.3636L11.0831 13.7272L8.74266 11.3636C8.39464 11.0122 7.83037 11.0122 7.48235 11.3636C7.13433 11.7151 7.13433 12.2849 7.48235 12.6364L10.453 15.6364C10.801 15.9878 11.3652 15.9878 11.7132 15.6364L17.6544 9.63636C18.0024 9.28493 18.0024 8.71507 17.6544 8.3636C17.3064 8.01214 16.7422 8.01214 16.3942 8.3636Z" fill="#01AA8D"/>
</svg>
