<svg width="127" height="86" viewBox="0 0 127 86" fill="none" xmlns="http://www.w3.org/2000/svg">
<path d="M110.611 41.3646L103.053 33.8832C102.526 33.3618 101.71 33.3618 101.183 33.8832L97.2064 37.8194C96.6797 38.3408 96.6797 39.1489 97.2064 39.6702L104.764 47.1516C105.291 47.673 106.108 47.673 106.634 47.1516L110.611 43.2154C111.111 42.7201 111.111 41.8859 110.611 41.3646ZM46.2221 77.0772H6.71976C4.53397 77.0772 2.76953 78.8237 2.76953 80.9873C2.76953 83.1509 4.53397 84.8975 6.71976 84.8975H46.2221C48.4078 84.8975 50.1723 83.1509 50.1723 80.9873C50.1723 78.8237 48.3815 77.0772 46.2221 77.0772Z" fill="#0B5D99"/>
<path d="M100.204 51.6865L92.646 44.2051C92.1193 43.6838 91.303 43.6838 90.7763 44.2051L69.603 65.1635C69.0763 65.6848 69.0763 66.4929 69.603 67.0143L77.1611 74.4957C77.6878 75.017 78.5042 75.017 79.0309 74.4957L100.204 53.5373C100.704 53.016 100.704 52.1818 100.204 51.6865ZM94.8055 21.2135C94.8055 18.3461 92.4354 16 89.5385 16H5.26697C2.37014 16 0 18.3461 0 21.2135V65.5284C0 68.3958 2.37014 70.7419 5.26697 70.7419H54.8028C55.0662 70.4031 94.8055 30.9889 94.8055 30.9889V21.2135ZM20.0672 38.9134L26.6509 42.2761C30.2851 44.1269 32.2075 47.9328 31.5492 51.9472C31.0225 55.2317 28.8367 57.8124 25.8345 58.9333V60.3149C25.8345 62.1136 24.3597 63.5733 22.5426 63.5733C20.7255 63.5733 19.2771 62.1136 19.2771 60.3149V59.1679C16.0906 58.2816 13.3781 56.0398 11.9824 52.8856C11.245 51.2434 12.0087 49.3144 13.6941 48.6106C15.3532 47.9067 17.302 48.6627 18.013 50.3049C18.8031 52.1297 20.6729 53.2245 22.7006 53.042L23.0167 53.016C24.5704 52.7814 24.9654 51.478 25.0445 50.9566C25.2025 49.9921 24.9128 48.7409 23.6224 48.0892L17.0387 44.7265C13.3781 42.8496 11.4293 38.8873 12.193 34.8469C12.9041 31.1192 15.6429 28.3821 19.2771 27.6522V26.427C19.2771 24.6284 20.7519 23.1686 22.569 23.1686C24.3861 23.1686 25.8608 24.6284 25.8608 26.427V28.33C28.389 29.4248 30.5221 31.432 31.7072 34.0909C32.4445 35.7332 31.6808 37.6622 29.9954 38.366C28.3363 39.0959 26.3875 38.3139 25.6765 36.6716C24.8864 34.8469 23.0167 33.752 20.9889 33.9345C19.2244 34.117 18.7768 35.4464 18.6714 36.0199C18.5661 36.5152 18.4081 38.0792 20.0672 38.9134ZM59.3851 54.4497H43.5842C41.7671 54.4497 40.2923 52.9899 40.2923 51.1912C40.2923 49.3926 41.7671 47.9328 43.5842 47.9328H59.3851C61.2022 47.9328 62.677 49.3926 62.677 51.1912C62.677 52.9899 61.2022 54.4497 59.3851 54.4497ZM69.9191 41.4159H43.5842C41.7671 41.4159 40.2923 39.9561 40.2923 38.1574C40.2923 36.3588 41.7671 34.899 43.5842 34.899H69.9191C71.7362 34.899 73.2109 36.3588 73.2109 38.1574C73.2109 39.9561 71.7362 41.4159 69.9191 41.4159ZM64.8364 71.7064C64.3361 71.1851 63.4933 71.1851 62.993 71.7064C62.1239 72.5406 60.9125 73.7658 60.3068 74.3393C60.0961 74.5478 59.9645 74.8345 59.9381 75.1474L59.2798 83.5933C59.2271 84.4014 59.9118 85.0791 60.7545 85.0009L68.9447 84.0625C69.2343 84.0364 69.524 83.9061 69.7347 83.6975L72.4209 81.0386C72.9476 80.5173 72.9476 79.7092 72.4209 79.1878L64.8364 71.7064Z" fill="#0B5D99"/>
<path d="M109.08 0.256006C103.22 1.32261 98.5253 5.96488 97.474 11.6941C96.8598 15.0158 97.4427 18.1648 98.8583 20.8364C99.0145 21.131 99.0457 21.4662 98.9416 21.7811L97.068 27.2665C96.7349 28.2315 97.6821 29.1458 98.671 28.8309L104.313 26.9922C104.635 26.8907 104.968 26.9211 105.27 27.0735C107.997 28.4245 111.214 28.9731 114.597 28.3839C120.446 27.3579 125.193 22.7868 126.296 17.0881C128.211 7.03149 119.374 -1.61309 109.08 0.256006ZM110.641 12.4255L114.003 14.1117C115.71 14.965 116.616 16.7325 116.304 18.5915C116.043 20.1964 114.919 21.4459 113.389 21.903V22.8477C113.389 23.5486 112.806 24.1175 112.088 24.1175C111.37 24.1175 110.787 23.5486 110.787 22.8477V21.9741C109.153 21.6186 107.737 20.5317 107.04 18.9673C106.748 18.3273 107.05 17.5756 107.716 17.3014C108.372 17.0271 109.142 17.3217 109.423 17.9617C109.902 19.0283 111.005 19.6784 112.192 19.5666C112.255 19.5666 112.317 19.5565 112.369 19.5463C113.452 19.3736 113.681 18.4696 113.733 18.1953C113.837 17.5858 113.639 16.7935 112.806 16.377L109.444 14.6907C107.695 13.807 106.8 12.0191 107.165 10.1196C107.519 8.30126 108.924 6.99086 110.787 6.7369V5.82267C110.787 5.12176 111.37 4.5529 112.088 4.5529C112.806 4.5529 113.389 5.12176 113.389 5.82267V7.04165C114.721 7.52924 115.814 8.51458 116.397 9.82498C116.689 10.4649 116.387 11.2166 115.721 11.4909C115.065 11.7652 114.295 11.4706 114.014 10.8306C113.535 9.76403 112.432 9.11391 111.245 9.22565C110.048 9.34755 109.777 10.2923 109.725 10.5767C109.6 11.1862 109.777 11.9988 110.641 12.4255Z" fill="#FBBC04"/>
</svg>
