<svg width="39" height="39" viewBox="0 0 39 39" fill="none" xmlns="http://www.w3.org/2000/svg">
<g clipPath="url(#clip0_349_20887)">
<path d="M29.25 0C24.28 0 20.25 4.03 20.25 9C20.25 13.97 24.28 18 29.25 18C34.22 18 38.25 13.97 38.25 9C38.25 4.03 34.22 0 29.25 0ZM28.81 7.28L30.84 8.33C32.05 8.95 32.7 10.24 32.48 11.6C32.31 12.66 31.65 13.49 30.72 13.9V14.17C30.72 14.86 30.16 15.42 29.47 15.42C28.78 15.42 28.22 14.86 28.22 14.17V13.98C27.24 13.66 26.42 12.94 25.99 11.95C25.71 11.32 26 10.58 26.64 10.3C27.28 10.02 28.01 10.32 28.29 10.95C28.5 11.43 28.99 11.72 29.5 11.67C29.89 11.61 29.99 11.39 30.02 11.21C30.04 11.1 30.06 10.75 29.7 10.56L27.67 9.5C26.44 8.87 25.79 7.53 26.05 6.17C26.27 4.98 27.11 4.08 28.23 3.78V3.59C28.23 2.9 28.79 2.34 29.48 2.34C30.17 2.34 30.73 2.9 30.73 3.59V4.05C31.51 4.43 32.15 5.06 32.51 5.89C32.79 6.52 32.49 7.26 31.86 7.53C31.23 7.81 30.49 7.51 30.22 6.88C30.01 6.4 29.52 6.11 29.01 6.16C28.63 6.2 28.53 6.47 28.5 6.62C28.48 6.76 28.46 7.09 28.81 7.28Z" fill="#FBBC04"/>
<path d="M28.34 21.1863C27.6 21.0662 26.76 21.3563 26.17 21.8563C25.97 21.0263 25.18 20.3263 24.34 20.1863C23.64 20.0763 22.84 20.3263 22.27 20.7863C22.01 19.9863 21.16 19.3263 20.34 19.1863C19.55 19.0563 18.47 19.4762 18 20.0662V13.7463C18 12.8763 17.49 12.0263 16.65 11.7663C15.27 11.3263 14 12.3463 14 13.6663V29.6663C12.9 29.6663 12 28.7663 12 27.6663V25.8563C12 25.4763 11.69 25.1663 11.31 25.1663H10.71C9.22 25.1663 8.01 26.3763 8.01 27.8663V32.8063C8.01 33.6663 8.38 34.4963 9.03 35.0662L11.72 37.4263C12.27 37.9062 12.97 38.1662 13.7 38.1662H24.77C25.57 38.1662 26.33 37.8463 26.89 37.2863L29.13 35.0462C29.69 34.4862 30.01 33.7163 30.01 32.9263V23.2763C30 22.2663 29.32 21.3463 28.34 21.1863ZM11.5 19.1562H9C8.45 19.1562 8 18.7062 8 18.1562V6.15625C8 5.60625 8.45 5.15625 9 5.15625H18.42C18.81 4.07625 19.35 3.06625 20.02 2.15625H4C1.79 2.15625 0 3.94625 0 6.15625V18.1562C0 20.3662 1.79 22.1562 4 22.1562H11.5V19.1562ZM4.79 13.8463C3.86 13.8463 3.11 13.0963 3.11 12.1663C3.11 11.2362 3.86 10.4862 4.79 10.4862C5.72 10.4862 6.47 11.2362 6.47 12.1663C6.47 13.0863 5.72 13.8463 4.79 13.8463Z" fill="#0B5D99"/>
</g>
<defs>
<clipPath id="clip0_349_20887">
<rect width="38.25" height="38.16" fill="white"/>
</clipPath>
</defs>
</svg>
