<svg width="15" height="20" viewBox="0 0 15 20" fill="none" xmlns="http://www.w3.org/2000/svg">
<path d="M2.7716 0.438989L3.84819 0.0949794C4.85701 -0.227371 5.9349 0.293579 6.3669 1.31232L7.2266 3.33967C7.6013 4.22312 7.3934 5.26203 6.7126 5.90815L4.81832 7.70616C4.9352 8.7816 5.2967 9.8406 5.9029 10.8832C6.509 11.9257 7.266 12.7905 8.1739 13.4776L10.4491 12.7189C11.3115 12.4313 12.2507 12.7618 12.7797 13.539L14.0121 15.3495C14.627 16.2529 14.5164 17.4993 13.7534 18.2653L12.9356 19.0862C12.1217 19.9033 10.9592 20.1997 9.8838 19.8643C7.3449 19.0723 5.0106 16.7211 2.88083 12.8107C0.747962 8.8945 -0.00478786 5.57189 0.622582 2.84289C0.886582 1.69457 1.70409 0.780089 2.7716 0.438989Z" fill="#01AA8D"/>
</svg>
