<svg width="15" height="21" viewBox="0 0 15 21" fill="none" xmlns="http://www.w3.org/2000/svg">
<path d="M2.7716 0.440454L3.84819 0.0964442C4.85701 -0.225906 5.9349 0.295044 6.3669 1.31378L7.2266 3.34113C7.6013 4.22458 7.3934 5.26349 6.7126 5.90961L4.81832 7.70762C4.9352 8.78306 5.2967 9.84206 5.9029 10.8847C6.509 11.9272 7.266 12.792 8.1739 13.4791L10.4491 12.7204C11.3115 12.4328 12.2507 12.7633 12.7797 13.5405L14.0121 15.351C14.627 16.2544 14.5164 17.5008 13.7534 18.2668L12.9356 19.0877C12.1217 19.9048 10.9592 20.2012 9.8838 19.8658C7.3449 19.0738 5.0106 16.7226 2.88083 12.8122C0.747962 8.89596 -0.00478786 5.57335 0.622582 2.84435C0.886582 1.69603 1.70409 0.781554 2.7716 0.440454Z" fill="white"/>
</svg>
